<svg width="22" height="20" viewBox="0 0 22 20" fill="none" xmlns="http://www.w3.org/2000/svg">
<path d="M21.6422 10.1871C21.6422 9.36767 21.5709 8.76973 21.4168 8.14966H11.3918V11.848H17.2762C17.1576 12.7671 16.517 14.1512 15.0933 15.0813L15.0733 15.2051L18.243 17.4969L18.4626 17.5174C20.4795 15.7789 21.6422 13.221 21.6422 10.1871Z" fill="#4285F4"/>
<path d="M11.3918 19.9313C14.2747 19.9313 16.6949 19.0454 18.4626 17.5174L15.0933 15.0813C14.1917 15.6682 12.9815 16.0779 11.3918 16.0779C8.5682 16.0779 6.17172 14.3395 5.31744 11.9366L5.19222 11.9466L1.89631 14.3273L1.85321 14.4391C3.60904 17.6945 7.21567 19.9313 11.3918 19.9313Z" fill="#34A853"/>
<path d="M5.31743 11.9366C5.09202 11.3165 4.96157 10.6521 4.96157 9.96559C4.96157 9.27902 5.09202 8.61467 5.30557 7.9946L5.2996 7.86253L1.96239 5.4436L1.8532 5.49208C1.12953 6.84299 0.714294 8.36002 0.714294 9.96559C0.714294 11.5712 1.12953 13.0881 1.8532 14.439L5.31743 11.9366Z" fill="#FBBC05"/>
<path d="M11.3918 3.85336C13.3967 3.85336 14.7492 4.66168 15.5204 5.33718L18.5338 2.59107C16.6831 0.985496 14.2747 0 11.3918 0C7.21567 0 3.60904 2.23672 1.85321 5.49214L5.30558 7.99466C6.17172 5.59183 8.5682 3.85336 11.3918 3.85336Z" fill="#EB4335"/>
</svg>
